<svg id="Layer_1" data-name="Layer 1" xmlns="http://www.w3.org/2000/svg" xmlns:xlink="http://www.w3.org/1999/xlink" viewBox="0 0 317.46 80"><defs><style>.cls-1{fill:#00567d;}.cls-2{fill:#261f20;}.cls-3{fill:#fff;}.cls-4{fill:none;}.cls-5{fill:url(#linear-gradient);}.cls-6{fill:url(#linear-gradient-2);}.cls-7{fill:url(#linear-gradient-3);}.cls-8{fill:url(#linear-gradient-4);}.cls-9{fill:url(#linear-gradient-5);}.cls-10{fill:url(#linear-gradient-6);}.cls-11{fill:url(#linear-gradient-7);}.cls-12{fill:url(#linear-gradient-8);}.cls-13{fill:url(#linear-gradient-9);}.cls-14{fill:url(#linear-gradient-10);}.cls-15{fill:url(#linear-gradient-11);}.cls-16{fill:url(#linear-gradient-12);}.cls-17{fill:url(#linear-gradient-13);}.cls-18{fill:url(#linear-gradient-14);}.cls-19{fill:url(#linear-gradient-15);}</style><linearGradient id="linear-gradient" x1="170.95" y1="40.17" x2="249.54" y2="40.17" gradientTransform="translate(21 0)" gradientUnits="userSpaceOnUse"><stop offset="0" stop-color="#00567d"/><stop offset="1" stop-color="#7cccc9"/></linearGradient><linearGradient id="linear-gradient-2" x1="224.71" y1="34.63" x2="208.21" y2="18.97" gradientTransform="matrix(1, 0, 0, 1, 0, 0)" xlink:href="#linear-gradient"/><linearGradient id="linear-gradient-3" x1="170.95" y1="40.17" x2="249.54" y2="40.17" xlink:href="#linear-gradient"/><linearGradient id="linear-gradient-4" x1="222.5" y1="13.33" x2="209.83" y2="41.08" xlink:href="#linear-gradient"/><linearGradient id="linear-gradient-5" x1="160.16" y1="18.73" x2="186.65" y2="51.61" gradientUnits="userSpaceOnUse"><stop offset="0.31" stop-color="#00567d"/><stop offset="0.46" stop-color="#03597f"/><stop offset="0.58" stop-color="#0e6385"/><stop offset="0.69" stop-color="#1f7490"/><stop offset="0.8" stop-color="#388b9f"/><stop offset="0.9" stop-color="#57a9b2"/><stop offset="1" stop-color="#7cccc9"/></linearGradient><linearGradient id="linear-gradient-6" x1="166.44" y1="19.17" x2="192.68" y2="51.75" gradientTransform="matrix(1, 0, 0, 1, 0, 0)" xlink:href="#linear-gradient"/><linearGradient id="linear-gradient-7" x1="108.38" y1="101.68" x2="278.49" y2="-44.33" gradientUnits="userSpaceOnUse"><stop offset="0.11" stop-color="#00567d"/><stop offset="0.83" stop-color="#7cccc9"/></linearGradient><linearGradient id="linear-gradient-8" x1="217.77" y1="31.54" x2="294.17" y2="31.54" xlink:href="#linear-gradient"/><linearGradient id="linear-gradient-9" x1="234.6" y1="68.94" x2="292.42" y2="68.94" xlink:href="#linear-gradient"/><linearGradient id="linear-gradient-10" x1="284.79" y1="56.86" x2="287.01" y2="53.39" gradientTransform="matrix(1, 0, 0, 1, 0, 0)" xlink:href="#linear-gradient"/><linearGradient id="linear-gradient-11" x1="278.92" y1="26.31" x2="283.41" y2="19.27" gradientTransform="matrix(1, 0, 0, 1, 0, 0)" xlink:href="#linear-gradient"/><linearGradient id="linear-gradient-12" x1="221.46" y1="32.97" x2="260.76" y2="32.97" xlink:href="#linear-gradient"/><linearGradient id="linear-gradient-13" x1="237.61" y1="68.71" x2="265.38" y2="68.71" xlink:href="#linear-gradient"/><linearGradient id="linear-gradient-14" x1="264.33" y1="11.81" x2="253.02" y2="36.58" xlink:href="#linear-gradient"/><linearGradient id="linear-gradient-15" x1="267.21" y1="51.6" x2="261.85" y2="63.33" xlink:href="#linear-gradient"/></defs><path class="cls-1" d="M3.84,72.32H2.47v4.61H1.35V72.32H0v-.93H3.84Z"/><path class="cls-1" d="M6.31,74.91H5.76v2H4.64V71.39H6.42a1.81,1.81,0,0,1,1.3.44,1.6,1.6,0,0,1,.46,1.23,1.63,1.63,0,0,1-.8,1.55l1,2.27v.05H7.15ZM5.76,74h.63a.6.6,0,0,0,.51-.22,1,1,0,0,0,.16-.59c0-.56-.21-.84-.65-.84H5.76Z"/><path class="cls-1" d="M11.75,75.8H10.23l-.3,1.13H8.75l1.73-5.54h1l1.74,5.54H12.05Zm-1.28-.94h1l-.51-2Z"/><path class="cls-1" d="M13.92,76.93V71.39h1.46a2,2,0,0,1,1.55.62,2.44,2.44,0,0,1,.59,1.69v.89a2.47,2.47,0,0,1-.58,1.72,2.09,2.09,0,0,1-1.59.62ZM15,72.32V76h.33a1,1,0,0,0,.79-.29,1.81,1.81,0,0,0,.24-1v-1a2,2,0,0,0-.22-1.09.88.88,0,0,0-.74-.32Z"/><path class="cls-1" d="M19.64,76.93H18.52V71.39h1.12Z"/><path class="cls-1" d="M24.32,72.32H23v4.61H21.83V72.32H20.49v-.93h3.83Z"/><path class="cls-1" d="M26.29,76.93H25.17V71.39h1.12Z"/><path class="cls-1" d="M31.29,74.66a2.59,2.59,0,0,1-.53,1.73A1.82,1.82,0,0,1,29.3,77a1.87,1.87,0,0,1-1.47-.61,2.61,2.61,0,0,1-.54-1.71v-1A2.72,2.72,0,0,1,27.82,72a1.79,1.79,0,0,1,1.47-.65,1.81,1.81,0,0,1,1.46.63,2.75,2.75,0,0,1,.54,1.77Zm-1.13-.93A2.27,2.27,0,0,0,30,72.62a.7.7,0,0,0-.66-.37.72.72,0,0,0-.66.35,2.14,2.14,0,0,0-.22,1.07v1a2,2,0,0,0,.22,1.07.82.82,0,0,0,1.32,0,2.07,2.07,0,0,0,.21-1Z"/><path class="cls-1" d="M36.12,76.93H35L33.36,73.3v3.63H32.24V71.39h1.12L35,75V71.39h1.12Z"/><path class="cls-1" d="M37.44,78.33l-.58-.3.15-.28a2,2,0,0,0,.25-.9V76h.94v.77a2.06,2.06,0,0,1-.2.84A2.34,2.34,0,0,1,37.44,78.33Z"/><path class="cls-1" d="M44.05,74.53H42.31V76h2.06v.93H41.19V71.39h3.18v.93H42.31v1.31h1.74Z"/><path class="cls-1" d="M46.91,73.29l.74-1.9h1.28l-1.3,2.75L49,76.93H47.67L46.91,75l-.76,1.94h-1.3l1.33-2.79-1.3-2.75h1.28Z"/><path class="cls-1" d="M53.44,75.08a2.08,2.08,0,0,1-.53,1.44,1.91,1.91,0,0,1-1.39.49,1.77,1.77,0,0,1-1.44-.62,2.76,2.76,0,0,1-.5-1.77v-.93a2.7,2.7,0,0,1,.52-1.76,2,2,0,0,1,2.82-.11,2.3,2.3,0,0,1,.53,1.45H52.33a1.44,1.44,0,0,0-.18-.8.72.72,0,0,0-.61-.23.69.69,0,0,0-.64.32,2.16,2.16,0,0,0-.19,1v1a2.46,2.46,0,0,0,.18,1.13.68.68,0,0,0,.63.31.71.71,0,0,0,.61-.22,1.37,1.37,0,0,0,.19-.78Z"/><path class="cls-1" d="M57.15,74.53H55.41V76h2.06v.93H54.29V71.39h3.17v.93H55.41v1.31h1.74Z"/><path class="cls-1" d="M59.39,76h2v.93H58.27V71.39h1.12Z"/><path class="cls-1" d="M63.27,76h2v.93H62.15V71.39h1.12Z"/><path class="cls-1" d="M68.89,74.53H67.15V76h2.06v.93H66V71.39h3.18v.93H67.15v1.31h1.74Z"/><path class="cls-1" d="M73.89,76.93H72.77L71.13,73.3v3.63H70V71.39h1.12L72.77,75V71.39h1.12Z"/><path class="cls-1" d="M78.7,75.08a2.08,2.08,0,0,1-.54,1.44,1.87,1.87,0,0,1-1.38.49,1.74,1.74,0,0,1-1.44-.62,2.76,2.76,0,0,1-.5-1.77v-.93a2.64,2.64,0,0,1,.52-1.76,2,2,0,0,1,2.81-.11,2.3,2.3,0,0,1,.53,1.45H77.58a1.44,1.44,0,0,0-.18-.8.71.71,0,0,0-.61-.23.67.67,0,0,0-.63.32,2.14,2.14,0,0,0-.2,1v1a2.31,2.31,0,0,0,.19,1.13.68.68,0,0,0,.63.31.72.72,0,0,0,.61-.22,1.46,1.46,0,0,0,.19-.78Z"/><path class="cls-1" d="M82.4,74.53H80.66V76h2.06v.93H79.54V71.39h3.17v.93h-2v1.31H82.4Z"/><path class="cls-1" d="M83.79,78.33l-.58-.3.15-.28a2,2,0,0,0,.25-.9V76h.93v.77a1.93,1.93,0,0,1-.21.84A2.17,2.17,0,0,1,83.79,78.33Z"/><path class="cls-1" d="M89.1,74.79l-.44.56v1.58H87.54V71.39h1.12v2.42l.35-.6,1-1.82h1.37l-1.58,2.44,1.61,3.1H90.11Z"/><path class="cls-1" d="M95.88,76.93H94.76L93.13,73.3v3.63H92V71.39h1.12L94.76,75V71.39h1.12Z"/><path class="cls-1" d="M100.83,74.66a2.59,2.59,0,0,1-.52,1.73,2.05,2.05,0,0,1-2.93,0,2.51,2.51,0,0,1-.54-1.71v-1A2.66,2.66,0,0,1,97.37,72a2,2,0,0,1,2.92,0,2.64,2.64,0,0,1,.54,1.77Zm-1.12-.93a2.27,2.27,0,0,0-.21-1.11.72.72,0,0,0-.67-.37.71.71,0,0,0-.65.35A2,2,0,0,0,98,73.67v1a2.12,2.12,0,0,0,.21,1.07.74.74,0,0,0,.67.34.72.72,0,0,0,.65-.33,2.05,2.05,0,0,0,.22-1Z"/><path class="cls-1" d="M105.39,74.87l.52-3.48H107l-1,5.54h-1.13l-.64-3.26-.64,3.26H102.5l-1-5.54h1.12l.52,3.48.65-3.48h.94Z"/><path class="cls-1" d="M108.9,76h2v.93h-3.08V71.39h1.12Z"/><path class="cls-1" d="M114.53,74.53h-1.74V76h2.06v.93h-3.18V71.39h3.17v.93h-2v1.31h1.74Z"/><path class="cls-1" d="M115.65,76.93V71.39h1.46a2,2,0,0,1,1.55.62,2.44,2.44,0,0,1,.59,1.69v.89a2.47,2.47,0,0,1-.58,1.72,2.06,2.06,0,0,1-1.59.62Zm1.12-4.61V76h.33a1,1,0,0,0,.79-.29,1.81,1.81,0,0,0,.24-1v-1a2,2,0,0,0-.22-1.09.88.88,0,0,0-.74-.32Z"/><path class="cls-1" d="M124,76.3a2,2,0,0,1-.79.53,2.9,2.9,0,0,1-1,.18,1.89,1.89,0,0,1-1.49-.6,2.55,2.55,0,0,1-.54-1.72v-1a2.76,2.76,0,0,1,.5-1.77,1.77,1.77,0,0,1,1.46-.62,1.88,1.88,0,0,1,1.36.45,2.1,2.1,0,0,1,.53,1.4h-1.09a1.25,1.25,0,0,0-.22-.73.75.75,0,0,0-.55-.19.73.73,0,0,0-.66.33,2.29,2.29,0,0,0-.21,1.06v1a2,2,0,0,0,.23,1.1.82.82,0,0,0,.74.35,1,1,0,0,0,.54-.14l.1-.06v-1h-.79V74H124Z"/><path class="cls-1" d="M127.78,74.53H126V76h2.06v.93h-3.18V71.39h3.17v.93h-2v1.31h1.74Z"/><path class="cls-1" d="M133.49,75.8H132l-.3,1.13h-1.18l1.73-5.54h1L135,76.93h-1.19Zm-1.28-.94h1l-.52-2Z"/><path class="cls-1" d="M139.53,76.93h-1.12l-1.63-3.63v3.63h-1.12V71.39h1.12L138.42,75V71.39h1.11Z"/><path class="cls-1" d="M140.58,76.93V71.39h1.47a2,2,0,0,1,1.54.62,2.39,2.39,0,0,1,.59,1.69v.89a2.46,2.46,0,0,1-.57,1.72,2.09,2.09,0,0,1-1.59.62Zm1.12-4.61V76H142a.94.94,0,0,0,.78-.29,1.66,1.66,0,0,0,.24-1v-1a2.06,2.06,0,0,0-.21-1.09.89.89,0,0,0-.74-.32Z"/><path class="cls-1" d="M148.9,75.41l.93-4h1.25l-1.6,5.54h-1.17l-1.58-5.54H148Z"/><path class="cls-1" d="M152.92,76.93H151.8V71.39h1.12Z"/><path class="cls-1" d="M156.36,75.48a.66.66,0,0,0-.18-.51,1.88,1.88,0,0,0-.63-.37,2.93,2.93,0,0,1-1.19-.73,1.48,1.48,0,0,1-.37-1,1.41,1.41,0,0,1,.5-1.12,1.89,1.89,0,0,1,1.26-.43,1.94,1.94,0,0,1,.91.22,1.44,1.44,0,0,1,.61.61,1.83,1.83,0,0,1,.22.89h-1.12a1,1,0,0,0-.16-.6.6.6,0,0,0-.48-.2.62.62,0,0,0-.46.17.67.67,0,0,0-.16.47.57.57,0,0,0,.18.41,2.11,2.11,0,0,0,.65.39,2.8,2.8,0,0,1,1.18.71,1.65,1.65,0,0,1,.36,1.09A1.42,1.42,0,0,1,157,76.6a1.81,1.81,0,0,1-1.25.41,2.27,2.27,0,0,1-1-.22,1.7,1.7,0,0,1-.69-.64,1.86,1.86,0,0,1-.25-1H155a1.09,1.09,0,0,0,.18.7.79.79,0,0,0,.61.22C156.16,76.1,156.36,75.89,156.36,75.48Z"/><path class="cls-1" d="M159.55,76.93h-1.12V71.39h1.12Z"/><path class="cls-1" d="M164.54,74.66a2.59,2.59,0,0,1-.52,1.73,2.05,2.05,0,0,1-2.93,0,2.51,2.51,0,0,1-.54-1.71v-1a2.66,2.66,0,0,1,.53-1.78,2,2,0,0,1,2.92,0,2.64,2.64,0,0,1,.54,1.77Zm-1.12-.93a2.27,2.27,0,0,0-.21-1.11.79.79,0,0,0-1.32,0,2.14,2.14,0,0,0-.22,1.07v1a2.12,2.12,0,0,0,.21,1.07.74.74,0,0,0,.67.34.72.72,0,0,0,.65-.33,2,2,0,0,0,.22-1Z"/><path class="cls-1" d="M169.38,76.93h-1.12l-1.64-3.63v3.63H165.5V71.39h1.12L168.26,75V71.39h1.12Z"/><path class="cls-1" d="M28.08,6.69V34.25h-4.5L7.37,15.59V34.25H2V6.69H6.44L22.66,25.35V6.69Z"/><path class="cls-1" d="M49.33,24.52v9.73H43.87V24.6L32.32,6.69h5.84l8.61,13.43L55.46,6.69h5.38Z"/><path class="cls-1" d="M67,33.74a14.41,14.41,0,0,1-5-2.4l1.89-4a15.33,15.33,0,0,0,4.44,2.18,16.89,16.89,0,0,0,5.27.85,9.68,9.68,0,0,0,4.89-1,3,3,0,0,0,1.62-2.6,2.45,2.45,0,0,0-.9-1.95,6.62,6.62,0,0,0-2.29-1.2c-.93-.29-2.19-.62-3.78-1a45.37,45.37,0,0,1-5.44-1.5,9,9,0,0,1-3.57-2.34,6,6,0,0,1-1.5-4.31,7.06,7.06,0,0,1,1.33-4.16,8.93,8.93,0,0,1,4-3,17.2,17.2,0,0,1,6.53-1.1,22.38,22.38,0,0,1,5.29.63,15.08,15.08,0,0,1,4.5,1.81l-1.73,4a17.52,17.52,0,0,0-4-1.62,15.91,15.91,0,0,0-4.07-.55,9,9,0,0,0-4.81,1A3.13,3.13,0,0,0,68,14.29a2.37,2.37,0,0,0,.91,1.93,6.59,6.59,0,0,0,2.29,1.18c.92.29,2.18.62,3.78,1a43.4,43.4,0,0,1,5.37,1.48A9.18,9.18,0,0,1,84,22.2a5.91,5.91,0,0,1,1.49,4.25,7,7,0,0,1-1.32,4.14,8.91,8.91,0,0,1-4,2.95,17.39,17.39,0,0,1-6.55,1.1A24,24,0,0,1,67,33.74Z"/><path class="cls-1" d="M91.55,6.69H97V29.92h15.37v4.33H91.55Z"/><path class="cls-1" d="M122.5,11h-9.74V6.69h25V11H128V34.25H122.5Z"/><path class="cls-1" d="M159.05,27.87h-14.7l-2.9,6.38h-5.63L149.05,6.69h5.38L167.7,34.25H162Zm-1.81-4-5.54-12-5.5,12Z"/><rect class="cls-2" x="1.33" y="41.67" width="167.01" height="23.33"/><path class="cls-3" d="M10.17,56.64H8.82l-2-4.36v4.36H5.52V50H6.86l2,4.36V50h1.34Z"/><path class="cls-3" d="M13.17,56.73a2,2,0,0,1-1.55-.6,2.37,2.37,0,0,1-.55-1.69V54a2.8,2.8,0,0,1,.51-1.8A1.77,1.77,0,0,1,13,51.61a1.66,1.66,0,0,1,1.4.59A2.76,2.76,0,0,1,14.92,54v.64H12.35a1.31,1.31,0,0,0,.25.8.81.81,0,0,0,.66.26,1.44,1.44,0,0,0,1.08-.45l.51.78a1.64,1.64,0,0,1-.69.53A2.31,2.31,0,0,1,13.17,56.73Zm-.81-3h1.29v-.12a1.31,1.31,0,0,0-.14-.67.5.5,0,0,0-.48-.23.54.54,0,0,0-.49.24A1.71,1.71,0,0,0,12.36,53.7Z"/><path class="cls-3" d="M19.25,54.47l.44-2.77h1.24l-1,4.94H18.84l-.7-2.86-.7,2.86H16.36l-1-4.94h1.24L17,54.47l.66-2.77h.91Z"/><path class="cls-3" d="M25.79,53l1-3h1.46l-1.78,4.24v2.41H25.11V54.23L23.33,50h1.46Z"/><path class="cls-3" d="M28.35,54a2.68,2.68,0,0,1,.53-1.76,2,2,0,0,1,2.94,0A2.69,2.69,0,0,1,32.35,54v.31a2.68,2.68,0,0,1-.53,1.76,2,2,0,0,1-2.94,0,2.69,2.69,0,0,1-.53-1.77Zm1.3.32c0,.88.23,1.33.7,1.33s.67-.37.71-1.11V54a2.06,2.06,0,0,0-.19-1,.58.58,0,0,0-1,0,2.19,2.19,0,0,0-.18,1Z"/><path class="cls-3" d="M35.59,52.94l-.43,0a.71.71,0,0,0-.72.46v3.27H33.15V51.7h1.22l0,.53a.94.94,0,0,1,.85-.62.88.88,0,0,1,.35.06Z"/><path class="cls-3" d="M37.89,54.73l-.35.39v1.52H36.25v-7h1.29v3.79l.16-.23.9-1.48h1.54l-1.44,2,1.57,2.91H38.8Z"/><path class="cls-3" d="M45.75,54.89a.86.86,0,0,0-.2-.61,2.38,2.38,0,0,0-.76-.43A3.56,3.56,0,0,1,43.35,53a1.8,1.8,0,0,1-.44-1.2,1.68,1.68,0,0,1,.6-1.35A2.24,2.24,0,0,1,45,49.9a2.17,2.17,0,0,1,1.09.26,1.77,1.77,0,0,1,.74.72A2.23,2.23,0,0,1,47.11,52H45.77a1.13,1.13,0,0,0-.2-.71A.69.69,0,0,0,45,51a.72.72,0,0,0-.55.21.76.76,0,0,0-.19.56.7.7,0,0,0,.21.49,2.6,2.6,0,0,0,.78.46,3.24,3.24,0,0,1,1.41.86,1.9,1.9,0,0,1,.44,1.3,1.72,1.72,0,0,1-.55,1.36,2.17,2.17,0,0,1-1.5.49,2.52,2.52,0,0,1-1.17-.27,2,2,0,0,1-.83-.75,2.21,2.21,0,0,1-.3-1.17H44.1a1.28,1.28,0,0,0,.22.84.92.92,0,0,0,.73.26C45.52,55.64,45.75,55.39,45.75,54.89Z"/><path class="cls-3" d="M49.43,50.48V51.7h.66v1h-.66v2.45a.75.75,0,0,0,.08.4.36.36,0,0,0,.31.11,1.3,1.3,0,0,0,.31,0v1a2.08,2.08,0,0,1-.71.12c-.84,0-1.26-.48-1.27-1.44V52.67h-.57v-1h.57V50.48Z"/><path class="cls-3" d="M53.15,56.64a2,2,0,0,1-.11-.39,1.11,1.11,0,0,1-.94.48,1.41,1.41,0,0,1-1-.41,1.47,1.47,0,0,1-.41-1.07,1.52,1.52,0,0,1,.5-1.2,2.19,2.19,0,0,1,1.42-.43H53v-.4a.72.72,0,0,0-.12-.47.41.41,0,0,0-.33-.14c-.32,0-.49.19-.49.57H50.75a1.41,1.41,0,0,1,.52-1.13,1.87,1.87,0,0,1,1.29-.44,1.76,1.76,0,0,1,1.26.42,1.57,1.57,0,0,1,.45,1.21v2.32a2.26,2.26,0,0,0,.18,1v.08Zm-.76-.93a.68.68,0,0,0,.36-.08.67.67,0,0,0,.23-.21v-1h-.31a.66.66,0,0,0-.52.21.78.78,0,0,0-.19.56C52,55.53,52.1,55.71,52.39,55.71Z"/><path class="cls-3" d="M56.71,50.48V51.7h.66v1h-.66v2.45a.77.77,0,0,0,.07.4.36.36,0,0,0,.31.11,1.3,1.3,0,0,0,.31,0v1a2.08,2.08,0,0,1-.71.12c-.84,0-1.26-.48-1.27-1.44V52.67h-.57v-1h.57V50.48Z"/><path class="cls-3" d="M60.07,56.73a2,2,0,0,1-1.55-.6A2.38,2.38,0,0,1,58,54.44V54a2.8,2.8,0,0,1,.51-1.8,1.78,1.78,0,0,1,1.47-.63,1.66,1.66,0,0,1,1.4.59A2.88,2.88,0,0,1,61.82,54v.64H59.25a1.38,1.38,0,0,0,.24.8.81.81,0,0,0,.66.26,1.43,1.43,0,0,0,1.08-.45l.51.78a1.64,1.64,0,0,1-.69.53A2.3,2.3,0,0,1,60.07,56.73Zm-.81-3h1.29v-.12a1.41,1.41,0,0,0-.15-.67.49.49,0,0,0-.47-.23.53.53,0,0,0-.49.24A1.71,1.71,0,0,0,59.26,53.7Z"/><path class="cls-3" d="M66.11,55.52h2.36v1.12h-3.7V50h1.34Z"/><path class="cls-3" d="M71.52,56.64a3,3,0,0,1-.11-.39,1.09,1.09,0,0,1-.94.48,1.43,1.43,0,0,1-1-.41,1.46,1.46,0,0,1-.4-1.07,1.51,1.51,0,0,1,.49-1.2A2.22,2.22,0,0,1,71,53.62h.39v-.4a.79.79,0,0,0-.11-.47.43.43,0,0,0-.34-.14q-.48,0-.48.57H69.13a1.43,1.43,0,0,1,.51-1.13,1.9,1.9,0,0,1,1.3-.44A1.78,1.78,0,0,1,72.2,52a1.6,1.6,0,0,1,.44,1.21v2.32a2.4,2.4,0,0,0,.19,1v.08Zm-.76-.93a.7.7,0,0,0,.37-.08.64.64,0,0,0,.22-.21v-1H71a.67.67,0,0,0-.52.21.82.82,0,0,0-.19.56C70.33,55.53,70.48,55.71,70.76,55.71Z"/><path class="cls-3" d="M74.76,51.7l0,.49a1.35,1.35,0,0,1,1.14-.58c.85,0,1.29.59,1.31,1.78v3.25H76V53.49a1.15,1.15,0,0,0-.13-.61.48.48,0,0,0-.44-.19.61.61,0,0,0-.55.36v3.59H73.55V51.7Z"/><path class="cls-3" d="M78,54a3.21,3.21,0,0,1,.41-1.82,1.36,1.36,0,0,1,1.19-.59,1.14,1.14,0,0,1,1,.49V49.62h1.31v7H80.69l-.06-.51a1.17,1.17,0,0,1-1,.6,1.33,1.33,0,0,1-1.18-.6A3,3,0,0,1,78,54.39Zm1.29.32a2.37,2.37,0,0,0,.16,1,.55.55,0,0,0,.52.29.62.62,0,0,0,.58-.34V53.05a.61.61,0,0,0-.57-.36.54.54,0,0,0-.52.29,2.2,2.2,0,0,0-.17,1Z"/><path class="cls-3" d="M89.06,51.11H87.42v5.53H86.07V51.11H84.46V50h4.6Z"/><path class="cls-3" d="M89.77,50.42a.68.68,0,0,1,.19-.49.7.7,0,0,1,.52-.2.69.69,0,0,1,.51.2.68.68,0,0,1,.19.49.72.72,0,0,1-1.22.49A.66.66,0,0,1,89.77,50.42Zm1.36,6.22h-1.3V51.7h1.3Z"/><path class="cls-3" d="M93.63,50.48V51.7h.66v1h-.66v2.45a.75.75,0,0,0,.08.4c.05.08.16.11.31.11a1.26,1.26,0,0,0,.3,0v1a2,2,0,0,1-.71.12q-1.25,0-1.26-1.44V52.67h-.57v-1h.57V50.48Z"/><path class="cls-3" d="M96.36,56.64h-1.3v-7h1.3Z"/><path class="cls-3" d="M99.35,56.73a2,2,0,0,1-1.55-.6,2.38,2.38,0,0,1-.56-1.69V54a2.8,2.8,0,0,1,.51-1.8,1.78,1.78,0,0,1,1.47-.63,1.66,1.66,0,0,1,1.4.59A2.88,2.88,0,0,1,101.1,54v.64H98.53a1.38,1.38,0,0,0,.24.8.81.81,0,0,0,.66.26,1.43,1.43,0,0,0,1.08-.45L101,56a1.64,1.64,0,0,1-.69.53A2.3,2.3,0,0,1,99.35,56.73Zm-.81-3h1.29v-.12a1.41,1.41,0,0,0-.15-.67.49.49,0,0,0-.47-.23.53.53,0,0,0-.49.24A1.71,1.71,0,0,0,98.54,53.7Z"/><path class="cls-3" d="M107.22,55.28h-1.83L105,56.64h-1.42L105.69,50h1.23L109,56.64h-1.43Zm-1.54-1.12h1.24l-.62-2.37Z"/><path class="cls-3" d="M111.75,55.31a.4.4,0,0,0-.15-.3,3.47,3.47,0,0,0-.7-.38,2.81,2.81,0,0,1-1.1-.67,1.27,1.27,0,0,1-.3-.86A1.35,1.35,0,0,1,110,52a1.77,1.77,0,0,1,1.24-.42,1.93,1.93,0,0,1,1.3.42,1.42,1.42,0,0,1,.49,1.12h-1.3c0-.4-.16-.6-.5-.6a.45.45,0,0,0-.34.13.48.48,0,0,0-.13.35.36.36,0,0,0,.15.29,2.64,2.64,0,0,0,.69.36,2.86,2.86,0,0,1,1.11.65,1.43,1.43,0,0,1-.17,2,2,2,0,0,1-1.3.4,2.06,2.06,0,0,1-1-.21,1.57,1.57,0,0,1-.65-.6,1.47,1.47,0,0,1-.24-.81h1.23a.78.78,0,0,0,.16.5.59.59,0,0,0,.48.17C111.58,55.78,111.75,55.63,111.75,55.31Z"/><path class="cls-3" d="M116,55.31a.38.38,0,0,0-.16-.3,3.19,3.19,0,0,0-.7-.38A2.89,2.89,0,0,1,114,54a1.27,1.27,0,0,1-.3-.86,1.39,1.39,0,0,1,.47-1.07,1.79,1.79,0,0,1,1.24-.42,1.92,1.92,0,0,1,1.3.42,1.39,1.39,0,0,1,.49,1.12H116c0-.4-.17-.6-.5-.6a.45.45,0,0,0-.34.13A.45.45,0,0,0,115,53a.38.38,0,0,0,.14.29,2.84,2.84,0,0,0,.69.36,2.92,2.92,0,0,1,1.12.65,1.43,1.43,0,0,1-.17,2,2.07,2.07,0,0,1-1.31.4,2.12,2.12,0,0,1-1-.21,1.71,1.71,0,0,1-.65-.6,1.55,1.55,0,0,1-.23-.81h1.23a.73.73,0,0,0,.15.5.6.6,0,0,0,.49.17C115.83,55.78,116,55.63,116,55.31Z"/><path class="cls-3" d="M117.91,54a2.62,2.62,0,0,1,.53-1.76,1.78,1.78,0,0,1,1.46-.64,1.81,1.81,0,0,1,1.48.64,2.69,2.69,0,0,1,.53,1.77v.31a2.68,2.68,0,0,1-.53,1.76,1.79,1.79,0,0,1-1.47.64,1.82,1.82,0,0,1-1.48-.64,2.69,2.69,0,0,1-.52-1.77Zm1.3.32c0,.88.23,1.33.7,1.33s.67-.37.71-1.11V54a2.06,2.06,0,0,0-.19-1,.58.58,0,0,0-.53-.32.57.57,0,0,0-.51.32,2.19,2.19,0,0,0-.18,1Z"/><path class="cls-3" d="M124.5,55.66c.37,0,.56-.25.57-.73h1.21a1.77,1.77,0,0,1-.5,1.3,1.68,1.68,0,0,1-1.26.5,1.78,1.78,0,0,1-1.45-.6,2.58,2.58,0,0,1-.51-1.74V54a2.76,2.76,0,0,1,.49-1.77,1.76,1.76,0,0,1,1.46-.61,1.65,1.65,0,0,1,1.29.5,2,2,0,0,1,.48,1.43h-1.21a1.35,1.35,0,0,0-.14-.64.46.46,0,0,0-.44-.22.52.52,0,0,0-.48.24,2.05,2.05,0,0,0-.16.93v.5a4,4,0,0,0,.06.84.63.63,0,0,0,.2.35A.57.57,0,0,0,124.5,55.66Z"/><path class="cls-3" d="M127,50.42a.68.68,0,0,1,.19-.49.69.69,0,0,1,.51-.2.7.7,0,0,1,.52.2.68.68,0,0,1,.19.49.72.72,0,0,1-1.22.49A.66.66,0,0,1,127,50.42Zm1.36,6.22h-1.3V51.7h1.3Z"/><path class="cls-3" d="M131.71,56.64a3,3,0,0,1-.11-.39,1.09,1.09,0,0,1-.94.48,1.43,1.43,0,0,1-1-.41,1.46,1.46,0,0,1-.4-1.07,1.51,1.51,0,0,1,.49-1.2,2.22,2.22,0,0,1,1.43-.43h.39v-.4a.79.79,0,0,0-.11-.47.43.43,0,0,0-.34-.14q-.48,0-.48.57h-1.29a1.43,1.43,0,0,1,.51-1.13,1.9,1.9,0,0,1,1.3-.44,1.78,1.78,0,0,1,1.26.42,1.6,1.6,0,0,1,.44,1.21v2.32a2.4,2.4,0,0,0,.19,1v.08Zm-.76-.93a.72.72,0,0,0,.37-.08.64.64,0,0,0,.22-.21v-1h-.31a.67.67,0,0,0-.52.21.78.78,0,0,0-.19.56C130.52,55.53,130.67,55.71,131,55.71Z"/><path class="cls-3" d="M135.27,50.48V51.7h.66v1h-.66v2.45a.75.75,0,0,0,.08.4c.05.08.16.11.31.11a1.21,1.21,0,0,0,.3,0v1a2.09,2.09,0,0,1-.72.12q-1.25,0-1.26-1.44V52.67h-.57v-1H134V50.48Z"/><path class="cls-3" d="M136.64,50.42a.64.64,0,0,1,.19-.49.69.69,0,0,1,.51-.2.66.66,0,0,1,.51.2.65.65,0,0,1,.2.49.72.72,0,0,1-1.22.49A.66.66,0,0,1,136.64,50.42ZM138,56.64h-1.3V51.7H138Z"/><path class="cls-3" d="M138.85,54a2.68,2.68,0,0,1,.52-1.76,1.81,1.81,0,0,1,1.47-.64,1.79,1.79,0,0,1,1.47.64,2.64,2.64,0,0,1,.53,1.77v.31a2.68,2.68,0,0,1-.52,1.76,1.79,1.79,0,0,1-1.47.64,1.81,1.81,0,0,1-1.48-.64,2.69,2.69,0,0,1-.52-1.77Zm1.29.32c0,.88.24,1.33.71,1.33s.67-.37.7-1.11V54a2.18,2.18,0,0,0-.19-1,.6.6,0,0,0-.53-.32.57.57,0,0,0-.51.32,2.06,2.06,0,0,0-.19,1Z"/><path class="cls-3" d="M144.83,51.7l0,.49a1.35,1.35,0,0,1,1.14-.58c.85,0,1.29.59,1.31,1.78v3.25H146V53.49a1.15,1.15,0,0,0-.13-.61.48.48,0,0,0-.44-.19.61.61,0,0,0-.55.36v3.59h-1.29V51.7Z"/><path class="cls-3" d="M148.63,58.31l-.69-.36.18-.32a2.45,2.45,0,0,0,.3-1.09v-1h1.12v.92a2.63,2.63,0,0,1-.25,1A2.48,2.48,0,0,1,148.63,58.31Z"/><path class="cls-3" d="M154.17,56.64h-1.35V50h1.35Z"/><path class="cls-3" d="M156.41,51.7l0,.49a1.36,1.36,0,0,1,1.15-.58c.84,0,1.28.59,1.31,1.78v3.25h-1.3V53.49a1.06,1.06,0,0,0-.13-.61.48.48,0,0,0-.44-.19.62.62,0,0,0-.55.36v3.59H155.2V51.7Z"/><path class="cls-3" d="M161.62,55.66c.37,0,.56-.25.57-.73h1.21a1.77,1.77,0,0,1-.5,1.3,1.68,1.68,0,0,1-1.26.5,1.78,1.78,0,0,1-1.45-.6,2.58,2.58,0,0,1-.51-1.74V54a2.76,2.76,0,0,1,.49-1.77,1.76,1.76,0,0,1,1.46-.61,1.65,1.65,0,0,1,1.29.5,2,2,0,0,1,.48,1.43h-1.21a1.35,1.35,0,0,0-.14-.64.46.46,0,0,0-.44-.22.52.52,0,0,0-.48.24,2.05,2.05,0,0,0-.16.93v.5a4,4,0,0,0,.06.84.63.63,0,0,0,.2.35A.57.57,0,0,0,161.62,55.66Z"/><path class="cls-3" d="M164.24,56a.69.69,0,0,1,.2-.51.73.73,0,0,1,.55-.2.72.72,0,0,1,.53.2.7.7,0,0,1,0,1,.82.82,0,0,1-1.07,0A.66.66,0,0,1,164.24,56Z"/><path class="cls-4" d="M243.61,19.64c.53-.76,1-1.48,1.57-2.16a26.63,26.63,0,1,0,12.3,17.93,26.9,26.9,0,0,0-1.83-5.91c-.53.91-.83,1.49-.83,1.49Z"/><path class="cls-5" d="M265,20.07a17.58,17.58,0,0,0-5.52,4.22A32.49,32.49,0,1,1,248.91,13a38.59,38.59,0,0,1,5.21-4.78A39.25,39.25,0,1,0,265,20.07Z"/><path class="cls-6" d="M203.23,40.39a28,28,0,1,0,53.22-12.16c-.31.47-.58.9-.8,1.27a26.65,26.65,0,1,1-29.17-15.56,26.52,26.52,0,0,1,18.7,3.54c.24-.32.47-.63.71-.93a28,28,0,0,0-42.66,23.84Z"/><path class="cls-7" d="M259.25,40.39a28.09,28.09,0,1,1-13.36-23.84q1.59-2,3-3.54a32.63,32.63,0,1,0,10.58,11.28,31.41,31.41,0,0,0-3,3.94A27.88,27.88,0,0,1,259.25,40.39Z"/><path class="cls-8" d="M259.25,40.39a28.09,28.09,0,1,1-13.36-23.84q1.59-2,3-3.54a32.63,32.63,0,1,0,10.58,11.28,31.41,31.41,0,0,0-3,3.94A27.88,27.88,0,0,1,259.25,40.39Z"/><polygon class="cls-9" points="180.26 80 174.32 80 174.32 12.78 168.35 12.78 173.34 0 180.26 0 180.26 80"/><rect class="cls-10" x="180.26" y="0.01" width="5.93" height="79.99"/><polygon class="cls-11" points="177.29 1.34 175.92 1.34 174.32 1.34 170.75 11.52 175.92 11.52 175.92 80 184.6 80 184.6 1.34 177.29 1.34"/><path class="cls-4" d="M273.38,14.9a26.11,26.11,0,0,0-19.19,36.58,9.77,9.77,0,0,0,.77-1.85l10.79,11.21a25.17,25.17,0,0,1-1.2,2.31,26.17,26.17,0,0,0,18.2,3.36"/><path class="cls-12" d="M307.22,27.71h7.95c-.23-.63-.46-1.26-.72-1.88a39.3,39.3,0,1,0-69.61,35.84,42.28,42.28,0,0,0,5.62-5,31.48,31.48,0,0,1-3.78-10.23A31.89,31.89,0,0,1,271.62,9.46c.25-.06,16.51,1,20.44,3.45"/><path class="cls-13" d="M305,57.88a31.84,31.84,0,0,1-43.73,9.87,36.43,36.43,0,0,1-5.62,5.19,39.3,39.3,0,0,0,57.73-14.87l.09-.19"/><path class="cls-14" d="M297.88,57.89l-.17.19a26.17,26.17,0,0,1-33.16,5.07c-.34.57-.69,1.13-1.05,1.66a27.92,27.92,0,0,0,36.87-6.93"/><path class="cls-15" d="M302.77,27.71A28,28,0,0,0,253,53.42a19.94,19.94,0,0,0,1.17-1.94,26.21,26.21,0,0,1,46.35-24.31l.34.54"/><path class="cls-16" d="M272.37,9.31A31.9,31.9,0,0,0,246.68,46.4a31.48,31.48,0,0,0,3.78,10.23A27.4,27.4,0,0,0,253,53.42a28,28,0,0,1,25-40.51"/><path class="cls-17" d="M278.07,68.94a27.81,27.81,0,0,1-14.57-4.13,30.81,30.81,0,0,1-2.28,2.94,31.7,31.7,0,0,0,22.55,4.34"/><path class="cls-18" d="M307.22,27.71q-.62-1.38-1.35-2.67A31.91,31.91,0,0,0,246.68,46.4a31.48,31.48,0,0,0,3.78,10.23A27.4,27.4,0,0,0,253,53.42a28,28,0,0,1,48-28.51c.33.49,1.4,2.29,1.71,2.8"/><path class="cls-19" d="M300.37,57.88a27.92,27.92,0,0,1-36.87,6.93,30.81,30.81,0,0,1-2.28,2.94,31.85,31.85,0,0,0,43.52-9.53l.21-.34"/><path class="cls-1" d="M296.67,30.49v8.37h-1.55V31.79h-1.77v-1.3Z"/><path class="cls-1" d="M304.34,31.44a4.55,4.55,0,0,1,1,3.09,5.14,5.14,0,0,1-.52,2.41,3.53,3.53,0,0,1-1.44,1.52,4.27,4.27,0,0,1-2.14.52,5.24,5.24,0,0,1-1.22-.14,3.16,3.16,0,0,1-1-.4l.58-1.17a2.84,2.84,0,0,0,1.59.41,2.44,2.44,0,0,0,1.89-.75,3.05,3.05,0,0,0,.68-2.14h0a2.34,2.34,0,0,1-.94.65,3.58,3.58,0,0,1-1.3.22,3.38,3.38,0,0,1-1.48-.31,2.43,2.43,0,0,1-1.4-2.26,2.55,2.55,0,0,1,.41-1.43,2.68,2.68,0,0,1,1.1-.95,3.56,3.56,0,0,1,1.55-.33A3.42,3.42,0,0,1,304.34,31.44ZM303,34a1.32,1.32,0,0,0,.47-1,1.27,1.27,0,0,0-.46-1,1.86,1.86,0,0,0-1.27-.4,1.78,1.78,0,0,0-1.19.39,1.42,1.42,0,0,0,0,2.07A2.12,2.12,0,0,0,303,34Z"/><path class="cls-1" d="M312.91,37.54v1.32h-6.18v-1l3.33-3.16a3.49,3.49,0,0,0,.76-.94,1.81,1.81,0,0,0,.2-.79,1.07,1.07,0,0,0-.4-.9,1.82,1.82,0,0,0-1.16-.31,2.35,2.35,0,0,0-2,.87l-1.09-.84a3.4,3.4,0,0,1,1.32-1,4.67,4.67,0,0,1,1.86-.36,3.41,3.41,0,0,1,2.18.64,2.13,2.13,0,0,1,.81,1.76,2.92,2.92,0,0,1-.28,1.28,5,5,0,0,1-1.1,1.36L309,37.54Z"/><path class="cls-1" d="M317.2,30.49v8.37h-1.55V31.79h-1.77v-1.3Z"/><path class="cls-1" d="M299.7,47.39v1.29h-6v-1l3.26-3.09a3.74,3.74,0,0,0,.74-.92,1.72,1.72,0,0,0,.19-.78,1.09,1.09,0,0,0-.38-.88,1.84,1.84,0,0,0-1.14-.3,2.28,2.28,0,0,0-1.92.86l-1.06-.82a3.09,3.09,0,0,1,1.29-1,4.45,4.45,0,0,1,1.82-.36,3.33,3.33,0,0,1,2.13.63,2.07,2.07,0,0,1,.79,1.72A2.82,2.82,0,0,1,299.1,44,4.74,4.74,0,0,1,298,45.31l-2.19,2.08Z"/><path class="cls-1" d="M302,48.3a3.51,3.51,0,0,1-1.22-1.45,5.47,5.47,0,0,1-.44-2.27,5.39,5.39,0,0,1,.44-2.26A3.38,3.38,0,0,1,302,40.87a3.35,3.35,0,0,1,3.52,0,3.32,3.32,0,0,1,1.22,1.45,5.24,5.24,0,0,1,.44,2.26,5.32,5.32,0,0,1-.44,2.27,3.43,3.43,0,0,1-1.22,1.45,3.41,3.41,0,0,1-3.52,0Zm3.14-1.55a3.8,3.8,0,0,0,.51-2.17,3.74,3.74,0,0,0-.51-2.16,1.67,1.67,0,0,0-2.76,0,3.74,3.74,0,0,0-.51,2.16,3.8,3.8,0,0,0,.51,2.17,1.68,1.68,0,0,0,2.76,0Z"/><path class="cls-1" d="M314,47.39v1.29h-6v-1l3.25-3.09a3.51,3.51,0,0,0,.74-.92,1.74,1.74,0,0,0,.2-.78,1.06,1.06,0,0,0-.39-.88,1.84,1.84,0,0,0-1.14-.3,2.25,2.25,0,0,0-1.91.86l-1.07-.82a3.09,3.09,0,0,1,1.29-1,4.48,4.48,0,0,1,1.82-.36,3.33,3.33,0,0,1,2.13.63,2.08,2.08,0,0,1,.8,1.72,2.82,2.82,0,0,1-.28,1.25,5,5,0,0,1-1.08,1.34l-2.19,2.08Z"/><path class="cls-1" d="M317.46,40.48v8.2h-1.52V41.76h-1.73V40.48Z"/><path class="cls-1" d="M295.81,54v1.7h-.89V54L293,50.88h1l1.41,2.35,1.43-2.35h.88Z"/><path class="cls-1" d="M302.05,55v.75h-3.62V50.88H302v.75h-2.62v1.25h2.33v.74h-2.33V55Z"/><path class="cls-1" d="M306.33,54.58h-2.41l-.48,1.12h-.92l2.17-4.82h.88l2.18,4.82h-.94Zm-.3-.7-.91-2.11-.9,2.11Z"/><path class="cls-1" d="M311.66,55.7l-1-1.41h-1.27V55.7h-.9V50.88h2a2.58,2.58,0,0,1,1.09.21,1.51,1.51,0,0,1,.72.59,1.67,1.67,0,0,1,.25.91,1.6,1.6,0,0,1-.27.94,1.62,1.62,0,0,1-.76.59l1.11,1.58Zm-.32-3.82a1.41,1.41,0,0,0-.89-.24h-1v1.92h1a1.41,1.41,0,0,0,.89-.25,1,1,0,0,0,0-1.43Z"/><path class="cls-1" d="M314.11,55.61a2.42,2.42,0,0,1-.82-.42l.31-.7a2.41,2.41,0,0,0,.73.39,2.54,2.54,0,0,0,.86.14,1.42,1.42,0,0,0,.8-.17.51.51,0,0,0,.27-.45.43.43,0,0,0-.15-.34,1,1,0,0,0-.38-.21l-.61-.18a6,6,0,0,1-.9-.26,1.37,1.37,0,0,1-.58-.41,1,1,0,0,1-.25-.75,1.33,1.33,0,0,1,.22-.73,1.44,1.44,0,0,1,.65-.52,2.68,2.68,0,0,1,1.08-.19,3.56,3.56,0,0,1,.86.11,2.27,2.27,0,0,1,.74.32l-.28.69a2.76,2.76,0,0,0-1.33-.38,1.4,1.4,0,0,0-.79.18.56.56,0,0,0-.26.48.4.4,0,0,0,.15.33,1,1,0,0,0,.38.21c.15,0,.35.11.61.17a7.79,7.79,0,0,1,.89.26,1.61,1.61,0,0,1,.59.41,1.11,1.11,0,0,1,.24.75,1.25,1.25,0,0,1-.22.72,1.44,1.44,0,0,1-.65.52,2.9,2.9,0,0,1-1.08.19A3.58,3.58,0,0,1,314.11,55.61Z"/></svg>